# This file uses centimeters as units for non-parametric coordinates.

mtllib crwobar.mtl
g default
v -0.500000 1.470588 9.370397
v 0.500000 1.470588 9.370397
v -0.500000 2.470588 9.370397
v 0.500000 2.470588 9.370397
v -0.500000 2.470588 7.288086
v 0.500000 2.470588 7.288086
v -0.500000 2.470588 5.205777
v 0.500000 2.470588 5.205777
v -0.500000 2.470588 3.123466
v 0.500000 2.470588 3.123466
v -0.500000 2.470588 1.041156
v 0.500000 2.470588 1.041156
v -0.500000 2.470588 -1.041155
v 0.500000 2.470588 -1.041155
v -0.500000 2.470588 -3.123466
v 0.500000 2.470588 -3.123466
v -0.500000 2.470588 -5.205776
v 0.500000 2.470588 -5.205776
v -0.500000 2.470588 -7.288086
v 0.500000 2.470588 -7.288086
v -0.500000 2.470588 -9.370397
v 0.500000 2.470588 -9.370397
v -0.500000 1.470588 -9.370397
v 0.500000 1.470588 -9.370397
v -0.500000 1.470588 -7.288086
v 0.500000 1.470588 -7.288086
v -0.500000 1.470588 -5.205777
v 0.500000 1.470588 -5.205777
v -0.500000 1.470588 -3.123466
v 0.500000 1.470588 -3.123466
v -0.500000 1.470588 -1.041156
v 0.500000 1.470588 -1.041156
v -0.500000 1.470588 1.041155
v 0.500000 1.470588 1.041155
v -0.500000 1.470588 3.123466
v 0.500000 1.470588 3.123466
v -0.500000 1.470588 5.205776
v 0.500000 1.470588 5.205776
v -0.500000 1.470588 7.288086
v 0.500000 1.470588 7.288086
v -0.500000 1.984131 10.508522
v 0.500000 1.984131 10.508522
v 0.500000 2.679437 11.895810
v -0.500000 2.679437 11.895810
v -0.500000 2.095160 -11.113455
v 0.500000 2.095160 -11.113455
v -0.500000 1.411343 -11.743637
v 0.500000 1.411343 -11.743637
v 0.500000 0.411343 -11.743637
v -0.500000 0.411343 -11.743637
v -0.500000 -0.098167 -10.523493
v 0.500000 -0.098167 -10.523493
v -0.500000 -0.781984 -11.153678
v 0.500000 -0.781984 -11.153678
v 0.500000 0.811446 -10.880646
v 0.500000 0.790934 -11.109304
v 0.500000 1.172997 -10.937900
v 0.500000 1.227894 -10.684734
v -0.500000 0.811446 -10.880646
v -0.500000 1.227894 -10.684734
v -0.500000 1.172997 -10.937900
v -0.500000 0.790934 -11.109304
v -0.500000 -0.863036 -9.635802
v 0.500000 -0.863036 -9.635802
v -0.500000 -1.546852 -10.265987
v 0.500000 -1.546852 -10.265987
v -0.478617 -1.983086 -8.130704
v 0.478617 -1.983086 -8.130704
v -0.478617 -2.637660 -8.733951
v 0.478617 -2.637660 -8.733951
v -0.187028 -2.641592 -7.757412
v 0.191479 -2.642824 -7.747778
v -0.191470 -2.904697 -7.989118
v 0.191479 -2.904697 -7.989118
v -0.000421 1.470588 9.370397
v -0.000421 1.984131 10.508522
v -0.000421 2.679437 11.895810
v -0.000421 2.470588 9.370397
v -0.000421 2.470588 7.288086
v -0.000421 2.470588 5.205777
v -0.000421 2.470588 3.123466
v -0.000421 2.470588 1.041156
v -0.000421 2.470588 -1.041155
v -0.000421 2.470588 -3.123466
v -0.000421 2.470588 -5.205776
v -0.000421 2.470588 -7.288086
v -0.000421 2.470588 -9.370397
v -0.000421 2.095160 -11.113455
v -0.000421 1.411343 -11.743637
v -0.000421 0.411343 -11.743637
v -0.000421 -0.781984 -11.153678
v -0.000421 -0.098167 -10.523493
v -0.000421 0.811446 -10.880646
v -0.000421 1.227894 -10.684734
v -0.000421 1.470588 -9.370397
v -0.000421 1.470588 -7.288086
v -0.000421 1.470588 -5.205777
v -0.000421 1.470588 -3.123466
v -0.000421 1.470588 -1.041156
v -0.000421 1.470588 1.041155
v -0.000421 1.470588 3.123466
v -0.000421 1.470588 5.205776
v -0.000421 1.470588 7.288086
v -0.185210 -1.531790 -10.252990
v -0.000421 -1.410222 -10.402563
v 0.186702 -1.540853 -10.248674
v -0.191702 -2.637660 -8.733951
v 0.206915 -2.631183 -8.731136
v 0.191138 -2.904697 -7.989118
v 0.191138 -2.642824 -7.747778
v -0.193503 -1.988348 -8.132856
v 0.190896 -1.983086 -8.130704
v 0.009429 -0.753123 -9.728279
v -0.175810 -0.877437 -9.581806
v 0.182697 -0.877726 -9.634276
v 0.191138 -2.902475 -7.989160
vt 0.229057 0.282362
vt 0.122712 0.282435
vt 0.056817 0.422247
vt 0.163199 0.422095
vt 0.283087 0.380123
vt 0.056817 0.836447
vt 0.137303 0.836447
vt 0.224306 1.000000
vt 0.217789 0.836447
vt 0.304755 1.000000
vt 0.298275 0.836447
vt 0.385204 1.000000
vt 0.378761 0.836447
vt 0.465653 1.000000
vt 0.459246 0.836447
vt 0.546103 1.000000
vt 0.539732 0.836447
vt 0.626552 1.000000
vt 0.620218 0.836447
vt 0.707001 1.000000
vt 0.700704 0.836447
vt 0.787450 1.000000
vt 0.781190 0.836447
vt 0.867899 1.000000
vt 0.959588 0.826758
vt 0.872921 0.663126
vt 0.872921 0.499499
vt 0.959588 0.663205
vt 0.867899 0.836447
vt 0.781190 0.672820
vt 0.700704 0.672820
vt 0.787450 0.836447
vt 0.620218 0.672820
vt 0.707001 0.836447
vt 0.539732 0.672820
vt 0.626552 0.836447
vt 0.459247 0.672820
vt 0.546103 0.836447
vt 0.378761 0.672820
vt 0.465653 0.836447
vt 0.298275 0.672820
vt 0.385204 0.836447
vt 0.217789 0.672820
vt 0.304755 0.836447
vt 0.137303 0.672820
vt 0.224306 0.836447
vt 0.143857 0.836447
vt 0.283087 0.179157
vt 0.700704 0.672820
vt 0.781190 0.672820
vt 0.781190 0.836447
vt 0.700704 0.836447
vt 0.620218 0.672820
vt 0.620218 0.836447
vt 0.539732 0.672820
vt 0.539732 0.836447
vt 0.459247 0.672820
vt 0.459246 0.836447
vt 0.378761 0.672820
vt 0.378761 0.836447
vt 0.298275 0.672820
vt 0.298275 0.836447
vt 0.217789 0.672820
vt 0.217789 0.836447
vt 0.137303 0.672820
vt 0.137303 0.836447
vt 0.176773 0.179171
vt 0.056817 0.836447
vt 0.056817 0.422247
vt 0.122712 0.282435
vt 0.848563 0.775017
vt 0.935242 0.938598
vt 0.831992 0.633109
vt 0.841778 0.624126
vt 0.848563 0.775017
vt 0.831992 0.633109
vt 0.918678 0.796754
vt 0.928459 0.787776
vt 0.848403 0.561610
vt 0.872921 0.499499
vt 0.872921 0.663126
vt 0.912449 0.579873
vt 0.839565 0.564966
vt 0.926247 0.728643
vt 0.912449 0.579873
vt 0.850118 0.304238
vt 0.936796 0.468033
vt 0.839565 0.564966
vt 0.825760 0.416129
vt 0.850118 0.304238
vt 0.935081 0.725288
vt 0.078124 0.179016
vt 0.058499 0.269169
vt 0.821086 0.201441
vt 0.901998 0.345401
vt 0.791449 0.290975
vt 0.289959 0.358158
vt 0.030412 0.035206
vt 0.011625 0.121504
vt 0.223477 0.300660
vt 0.242259 0.214384
vt 0.007216 0.000000
vt 0.000000 0.034687
vt 0.211554 0.213704
vt 0.219069 0.179187
vt 0.881726 0.472754
vt 0.791390 0.288572
vt 0.289420 0.358949
vt 0.056817 0.267270
vt 0.011692 0.120810
vt 0.030412 0.035206
vt 0.242171 0.215238
vt 0.219069 0.179187
vt 0.211554 0.213704
vt 0.223477 0.300660
vt 0.219070 0.179480
vt 0.795023 0.308960
vt 0.907777 0.365283
vt 0.270291 0.446352
vt 0.815138 0.180066
vt 0.077720 0.181002
vt 0.876067 0.452422
vt 0.270338 0.448288
vt 0.825760 0.416129
vt 0.815807 0.179084
vt 0.224306 0.836447
vt 0.283087 0.179157
vt 0.176773 0.179171
vt 0.056817 0.672820
vt 0.304755 0.836447
vt 0.385204 0.836447
vt 0.465653 0.836447
vt 0.546103 0.836447
vt 0.626552 0.836447
vt 0.707001 0.836447
vt 0.787450 0.836447
vt 0.867899 0.836447
vt 0.918678 0.796754
vt 0.926247 0.728643
vt 0.936796 0.468033
vt 0.959588 0.663205
vt 0.959588 0.826758
vt 0.935242 0.938598
vt 0.867899 1.000000
vt 0.787450 1.000000
vt 0.707001 1.000000
vt 0.626552 1.000000
vt 0.546103 1.000000
vt 0.465653 1.000000
vt 0.385204 1.000000
vt 0.304755 1.000000
vt 0.224306 1.000000
vt 0.176773 0.380252
vt 0.283087 0.380123
vt 0.143857 1.000000
vt 0.163199 0.422095
vt 0.229057 0.282362
vt 0.176773 0.380252
vt 0.056817 0.672820
vt 0.902500 0.342937
vt 0.878153 0.454777
vt 0.143857 0.836447
vt 0.143857 1.000000
vn 0.000000 -0.901989 0.431759
vn 0.000000 -0.901989 0.431759
vn 0.000000 -0.893998 0.448070
vn 0.000000 -0.893998 0.448070
vn 0.000000 1.000000 0.000000
vn 0.000000 1.000000 0.000000
vn 0.000000 1.000000 0.000000
vn 0.000000 1.000000 0.000000
vn 0.000000 1.000000 0.000000
vn 0.000000 1.000000 0.000000
vn 0.000000 1.000000 0.000000
vn 0.000000 1.000000 0.000000
vn 0.000000 1.000000 0.000000
vn 0.000000 1.000000 0.000000
vn 0.000000 1.000000 0.000000
vn 0.000000 1.000000 0.000000
vn 0.000000 1.000000 0.000000
vn 0.000000 1.000000 0.000000
vn 0.000000 1.000000 0.000000
vn 0.000000 1.000000 0.000000
vn 0.000000 1.000000 0.000000
vn 0.000000 1.000000 0.000000
vn 0.000000 0.995219 -0.097672
vn 0.000000 0.995219 -0.097673
vn -0.879254 0.166969 -0.446133
vn 0.000000 0.350514 -0.936557
vn 0.000000 -0.259747 -0.965677
vn -0.882176 -0.122320 -0.454756
vn 0.000000 -0.997457 0.071269
vn 0.000000 -0.997457 0.071269
vn 0.000000 -1.000000 0.000000
vn 0.000000 -1.000000 0.000000
vn 0.000000 -1.000000 0.000000
vn 0.000000 -1.000000 0.000000
vn 0.000000 -1.000000 0.000000
vn 0.000000 -1.000000 0.000000
vn 0.000000 -1.000000 0.000000
vn 0.000000 -1.000000 0.000000
vn 0.000000 -1.000000 0.000000
vn 0.000000 -1.000000 0.000000
vn 0.000000 -1.000000 0.000000
vn 0.000000 -1.000000 0.000000
vn 0.000000 -1.000000 0.000000
vn 0.000000 -1.000000 0.000000
vn 0.000000 -1.000000 0.000000
vn 0.000000 -1.000000 0.000000
vn 0.000000 -1.000000 0.000000
vn 0.000000 -1.000000 0.000000
vn 1.000000 0.000000 0.000000
vn 1.000000 0.000000 0.000000
vn 1.000000 0.000000 0.000000
vn 1.000000 0.000000 0.000000
vn 1.000000 0.000000 0.000000
vn 1.000000 0.000000 0.000000
vn 1.000000 0.000000 0.000000
vn 1.000000 0.000000 0.000000
vn 1.000000 0.000000 0.000000
vn 1.000000 0.000000 0.000000
vn 1.000000 0.000000 0.000000
vn 1.000000 0.000000 0.000000
vn 1.000000 0.000000 0.000000
vn 1.000000 0.000000 0.000000
vn 1.000000 0.000000 0.000000
vn 1.000000 0.000000 0.000000
vn 1.000000 0.000000 0.000000
vn 1.000000 0.000000 0.000000
vn 1.000000 0.000000 0.000000
vn 1.000000 0.000000 0.000000
vn -1.000000 0.000000 0.000000
vn -1.000000 0.000000 0.000000
vn -1.000000 0.000000 0.000000
vn -1.000000 0.000000 0.000000
vn -1.000000 0.000000 0.000000
vn -1.000000 0.000000 0.000000
vn -1.000000 0.000000 0.000000
vn -1.000000 0.000000 0.000000
vn -1.000000 0.000000 0.000000
vn -1.000000 0.000000 0.000000
vn -1.000000 0.000000 0.000000
vn -1.000000 0.000000 0.000000
vn -1.000000 0.000000 0.000000
vn -1.000000 0.000000 0.000000
vn -1.000000 0.000000 0.000000
vn -1.000000 0.000000 0.000000
vn -1.000000 0.000000 0.000000
vn -1.000000 0.000000 0.000000
vn -1.000000 0.000000 0.000000
vn -1.000000 0.000000 0.000000
vn 0.000000 -0.911505 0.411288
vn 0.000000 -0.911505 0.411288
vn 1.000000 0.000000 0.000000
vn 1.000000 0.000000 0.000000
vn 1.000000 0.000000 0.000000
vn 1.000000 0.000000 0.000000
vn 0.000000 0.996598 -0.082418
vn 0.000000 0.996598 -0.082418
vn 0.000000 0.996598 -0.082418
vn 0.000000 0.996598 -0.082418
vn -1.000000 0.000000 0.000000
vn -1.000000 0.000000 0.000000
vn -1.000000 0.000000 0.000000
vn -1.000000 0.000000 0.000000
vn 0.000000 0.913172 -0.407575
vn 0.000000 0.913172 -0.407575
vn 1.000000 0.000000 0.000000
vn 1.000000 0.000000 0.000000
vn 1.000000 0.000000 0.000000
vn 0.000000 -0.916512 0.400008
vn 0.000000 -0.916512 0.400008
vn -1.000000 0.000000 0.000000
vn -1.000000 0.000000 0.000000
vn -1.000000 0.000000 0.000000
vn 1.000000 0.000000 0.000000
vn 0.881846 -0.122480 -0.455353
vn 0.878917 0.167186 -0.446714
vn -0.001528 0.598769 0.800921
vn 0.000000 0.120705 0.992688
vn 0.000000 0.120705 0.992688
vn -0.015017 0.603695 0.797074
vn 0.000134 -0.603749 -0.797175
vn -0.871298 -0.296378 -0.391151
vn 1.000000 0.000000 0.000000
vn 1.000000 0.000000 0.000000
vn 0.870582 -0.296972 -0.392294
vn -1.000000 0.000000 0.000000
vn -1.000000 0.000000 0.000000
vn -1.000000 0.000000 0.000000
vn -0.946411 -0.261289 -0.189825
vn -1.000000 -0.000459 0.000498
vn 0.013212 -0.913270 -0.407141
vn 0.910599 -0.343983 -0.229095
vn 1.000000 -0.000459 0.000498
vn 0.947612 -0.258374 -0.187815
vn -0.738450 -0.657968 -0.147549
vn -0.999679 -0.017011 0.018782
vn 0.999685 -0.017010 0.018457
vn 0.749905 -0.647297 -0.136559
vn -0.820206 -0.524520 0.228342
vn -0.928795 -0.246932 0.276340
vn 0.930373 -0.248451 0.269590
vn 0.735503 -0.676251 0.041457
vn 0.000000 -0.911505 0.411288
vn 0.000000 -0.901989 0.431759
vn 0.000000 -0.893998 0.448070
vn 0.000000 0.996598 -0.082418
vn 0.000000 0.996598 -0.082418
vn 0.000000 1.000000 0.000000
vn 0.000000 1.000000 0.000000
vn 0.000000 1.000000 0.000000
vn 0.000000 1.000000 0.000000
vn 0.000000 1.000000 0.000000
vn 0.000000 1.000000 0.000000
vn 0.000000 1.000000 0.000000
vn 0.000000 1.000000 0.000000
vn 0.000000 1.000000 0.000000
vn 0.000000 0.995219 -0.097672
vn 0.000000 0.913172 -0.407575
vn 0.012466 0.593521 0.804722
vn -0.002147 0.761879 0.647716
vn 0.006586 0.776038 0.630652
vn 0.003032 0.780189 0.625536
vn 0.000000 0.120705 0.992688
vn 0.000000 -0.916512 0.400008
vn 0.000000 -0.997457 0.071269
vn 0.000000 -1.000000 0.000000
vn 0.000000 -1.000000 0.000000
vn 0.000000 -1.000000 0.000000
vn 0.000000 -1.000000 0.000000
vn 0.000000 -1.000000 0.000000
vn 0.000000 -1.000000 0.000000
vn 0.000000 -1.000000 0.000000
vn 0.000000 -1.000000 0.000000
vn 0.000000 -1.000000 0.000000
vn -0.909889 -0.345103 -0.230228
vn -0.026177 0.778412 0.627208
vn -0.026082 0.781325 0.623579
vn -0.019024 0.757400 0.652674
vn -0.020808 0.768735 0.639229
vn 0.823886 -0.473278 -0.311802
vn 0.015740 0.498355 0.866830
vn -0.825666 -0.468461 -0.314356
vn -0.025900 -0.938172 -0.345200
vn 0.000000 0.501266 0.865293
vn 0.000000 0.501076 0.865403
vn -0.015925 0.773364 0.633762
vn -0.015272 0.763584 0.645528
vn 0.999967 -0.007904 0.002146
vn 0.999987 0.001470 -0.004780
vn -0.999867 -0.002738 -0.016074
vn -0.999898 -0.014244 -0.001126
vn -0.999867 -0.002738 -0.016074
vn 0.844373 -0.388383 0.369044
vn -0.837345 -0.382996 0.390086
vn 0.047934 -0.709507 0.703066
s 1
g pCube1
usemtl initialShadingGroup
f 41/1/1 76/157/2 77/156/3 44/4/4
s 2
f 3/163/5 78/155/6 79/152/7 5/8/8
f 5/8/8 79/152/7 80/151/9 7/10/10
f 7/10/10 80/151/9 81/150/11 9/12/12
f 9/12/12 81/150/11 82/149/13 11/14/14
f 11/14/14 82/149/13 83/148/15 13/16/16
f 13/16/16 83/148/15 84/147/17 15/18/18
f 15/18/18 84/147/17 85/146/19 17/20/20
f 17/20/20 85/146/19 86/145/21 19/22/22
f 19/22/22 86/145/21 87/144/23 21/24/24
f 47/25/25 89/142/26 90/141/27 50/28/28
f 23/29/29 95/137/30 96/136/31 25/32/32
f 25/32/32 96/136/31 97/135/33 27/34/34
f 27/34/34 97/135/33 98/134/35 29/36/36
f 29/36/36 98/134/35 99/133/37 31/38/38
f 31/38/38 99/133/37 100/132/39 33/40/40
f 33/40/40 100/132/39 101/131/41 35/42/42
f 35/42/42 101/131/41 102/130/43 37/44/44
f 37/44/44 102/130/43 103/126/45 39/46/46
f 39/46/46 103/126/45 75/47/47 1/162/48
f 26/49/49 24/50/50 22/51/51 20/52/52
f 28/53/53 26/49/49 20/52/52 18/54/54
f 30/55/55 28/53/53 18/54/54 16/56/56
f 32/57/57 30/55/55 16/56/56 14/58/58
f 34/59/59 32/57/57 14/58/58 12/60/60
f 36/61/61 34/59/59 12/60/60 10/62/62
f 38/63/63 36/61/61 10/62/62 8/64/64
f 40/65/65 38/63/63 8/64/64 6/66/66
f 2/159/67 40/65/65 6/66/66 4/68/68
f 23/29/69 25/32/70 19/22/71 21/24/72
f 25/32/70 27/34/73 17/20/74 19/22/71
f 27/34/73 29/36/75 15/18/76 17/20/74
f 29/36/75 31/38/77 13/16/78 15/18/76
f 31/38/77 33/40/79 11/14/80 13/16/78
f 33/40/79 35/42/81 9/12/82 11/14/80
f 35/42/81 37/44/83 7/10/84 9/12/82
f 37/44/83 39/46/85 5/8/86 7/10/84
f 39/46/85 1/162/87 3/163/88 5/8/86
s 1
f 1/48/89 75/127/90 76/157/2 41/1/1
s off
f 2/67/91 4/158/92 43/69/93 42/70/94
s 7
f 77/156/95 78/154/96 3/5/97 44/4/98
s off
f 3/5/99 1/48/100 41/1/101 44/4/102
s 2
f 21/24/24 87/144/23 88/143/103 45/72/104
f 22/51/51 24/50/50 58/73/105 57/74/106 46/75/107
f 94/138/108 95/137/30 23/29/29 60/77/109
f 23/29/69 21/24/72 45/72/110 61/78/111 60/77/112
f 45/72/104 88/143/103 89/142/26 47/25/25
f 46/75/107 57/74/106 56/79/113 49/80/114 48/81/115
f 92/82/116 93/139/117 59/84/118 51/85/119
f 50/28/28 90/141/27 91/140/120 53/87/121
f 49/80/114 56/79/113 55/88/122 52/89/123 54/90/124
f 59/84/125 62/91/126 50/28/28 53/87/121 51/85/127
f 62/91/126 61/78/111 45/72/110 47/25/25 50/28/28
f 93/139/117 94/138/108 60/77/109 59/84/118
f 55/88/122 56/79/113 57/74/106 58/73/105
f 59/84/125 60/77/112 61/78/111 62/91/126
f 51/85/127 53/87/121 65/160/128 63/161/129
f 53/87/121 91/140/120 105/118/130 104/95/131 65/160/128
f 54/90/124 52/89/123 64/96/132 66/125/133
f 63/93/129 65/92/128 69/98/134 67/99/135
f 66/97/133 64/123/132 68/100/136 70/101/137
f 67/99/135 69/98/134 73/102/138 71/103/139
f 70/101/137 68/100/136 72/104/140 74/105/141
s 1
f 76/2/2 75/128/90 2/67/142 42/70/143
f 77/3/3 76/2/2 42/70/143 43/69/144
s 7
f 4/158/145 78/153/96 77/3/95 43/69/146
s 2
f 79/7/7 78/6/6 4/68/147 6/66/148
f 80/9/9 79/7/7 6/66/148 8/64/149
f 81/11/11 80/9/9 8/64/149 10/62/150
f 82/13/13 81/11/11 10/62/150 12/60/151
f 83/15/15 82/13/13 12/60/151 14/58/152
f 84/17/17 83/15/15 14/58/152 16/56/153
f 85/19/19 84/17/17 16/56/153 18/54/154
f 86/21/21 85/19/19 18/54/154 20/52/155
f 87/23/23 86/21/21 20/52/155 22/51/156
f 88/71/103 87/23/23 22/51/156 46/75/157
f 89/26/26 88/71/103 46/75/157 48/81/115
f 90/27/27 89/26/26 48/81/115 49/80/114
f 91/86/120 90/27/27 49/80/114 54/90/124
f 52/89/158 92/124/116 113/117/159 115/107/160 64/96/161
f 55/88/162 93/83/117 92/124/116 52/89/158
f 55/88/162 58/73/163 94/76/108 93/83/117
f 24/50/164 95/30/30 94/76/108 58/73/163
f 96/31/31 95/30/30 24/50/164 26/49/165
f 97/33/33 96/31/31 26/49/165 28/53/166
f 98/35/35 97/33/33 28/53/166 30/55/167
f 99/37/37 98/35/35 30/55/167 32/57/168
f 100/39/39 99/37/37 32/57/168 34/59/169
f 101/41/41 100/39/39 34/59/169 36/61/170
f 102/43/43 101/41/41 36/61/170 38/63/171
f 103/45/45 102/43/43 38/63/171 40/65/172
f 75/129/47 103/45/45 40/65/172 2/159/173
f 106/120/174 105/94/130 91/86/120 54/90/124 66/125/133
f 114/122/175 113/106/159 92/82/116 51/85/119 63/161/176
f 111/110/177 114/109/175 63/93/176 67/99/178
f 65/92/128 104/121/131 107/111/179 69/98/134
f 71/103/180 111/110/177 67/99/178
f 69/98/134 107/111/179 73/102/138
f 108/112/181 106/108/174 66/97/133 70/101/137
f 109/113/182 108/112/181 70/101/137 74/105/141
f 72/104/183 110/114/184 109/113/182 74/105/141
f 68/100/185 112/115/186 110/114/184 72/104/183
f 64/123/161 115/119/160 112/115/186 68/100/185
f 73/102/138 107/111/179 111/110/187 71/103/188
f 110/114/189 112/115/190 108/112/181 116/116/191
f 111/110/187 107/111/179 104/121/131 114/109/192
f 108/112/181 112/115/190 115/119/193 106/108/174
f 115/107/193 113/117/194 105/94/130 106/120/174
f 104/95/131 105/118/130 113/106/194 114/122/192
